# xmcd CD database file
#
# Track frame offsets:
#	150
#	27175
#	58162
#	84650
#	97700
#	126975
#	157962
#	180867
#	194645
#	219262
#	244632
#	279737
#
# Disc length: 3901 seconds
#
# Revision: 1
# Processed by: cddbd v1.5PL3 Copyright (c) Steve Scherf et al.
# Submitted via: CDex 1.51
#
DISCID=9c0f3b0c
DTITLE=Weather Report - STAR BOX
DYEAR=1900
DGENRE=Jazz
TTITLE0=Birdland
TTITLE1=Young And Fine
TTITLE2=Three Views Of A Secret
TTITLE3=Teen Town
TTITLE4=Black Market
TTITLE5=A Remark You Made
TTITLE6=Elegant People
TTITLE7=Rockin' In Rhythm
TTITLE8=Volcano For Hire
TTITLE9=Sightseeing
TTITLE10=Where The Moon Goes
TTITLE11=In A Silent Way
EXTD=
EXTT0=
EXTT1=
EXTT2=
EXTT3=
EXTT4=
EXTT5=
EXTT6=
EXTT7=
EXTT8=
EXTT9=
EXTT10=
EXTT11=
PLAYORDER=
